# xmcd CD database file
# Copyright (C) 1997 Ti Kan
# 
# Track frame offsets:
#     150
#     19200
#     35412
#     48237
#     63225
#     75587
#     91562
#     103612
#     115712
#     138100
#     155737
#     178337
#     196162
#     208875
#     220112
#     239800
#     252612
# 
# Disc length: 3624 seconds
# 
# Revision: 1
# Processed by: cddbd v1.4b41PL1 Copyright (c) Steve Scherf et al.
# Submitted via: DiscPlay 4.0.3
# 
DISCID=ec0e2611
DTITLE=Various Artist - Schmuse Songs Disk 2
DYEAR=1900
DGENRE=
TTITLE0=Delicate -Terence .D'Arby Feat.Desree
TTITLE1=Little Miss Understood - Rod Stewart
TTITLE2=A Groovy Kind of Love - NeilDiamond
TTITLE3=Something - Tonny Bennett
TTITLE4=Moon River - Andy Williams
TTITLE5=Human - Maria Rowe
TTITLE6=Stand By Your Man - Tammy Wynette
TTITLE7=Ich Bleib' Im Bett - Nena
TTITLE8=Reasons - Earth, Wind and Fire
TTITLE9=Teardrops - Shakin' Stevens
TTITLE10=Europa (Earth's Cry Heaven's Smile) - Santana
TTITLE11=99 Miles From L.A. - Albert Hammond
TTITLE12=Sealed With A Kiss - Bobby Vinton
TTITLE13=Blue Bayou - Roy Orbison
TTITLE14=The Moon and St.Christopher - Mary Chapin Carpenter
TTITLE15=On and On - David Essex
TTITLE16=Plerase Stay - Love Affair
EXTD=
EXTT0=
EXTT1=
EXTT2=
EXTT3=
EXTT4=
EXTT5=
EXTT6=
EXTT7=
EXTT8=
EXTT9=
EXTT10=
EXTT11=
EXTT12=
EXTT13=
EXTT14=
EXTT15=
EXTT16=
PLAYORDER=
